<?xml version="1.0" encoding="UTF-8" standalone="no"?>
<svg
   xmlns:dc="http://purl.org/dc/elements/1.1/"
   xmlns:cc="http://creativecommons.org/ns#"
   xmlns:rdf="http://www.w3.org/1999/02/22-rdf-syntax-ns#"
   xmlns:svg="http://www.w3.org/2000/svg"
   xmlns="http://www.w3.org/2000/svg"
   id="svg360"
   viewBox="0 0 7400 14250 "
   height="3.6195cm"
   width="1.8796cm"
   version="1.1">
  <metadata
     id="metadata366">
    <rdf:RDF>
      <cc:Work
         rdf:about="">
        <dc:format>image/svg+xml</dc:format>
        <dc:type
           rdf:resource="http://purl.org/dc/dcmitype/StillImage" />
        <dc:title>SVG Picture created as attiny_lm75-F.Cu.svg date 2018/06/24 22:53:06 </dc:title>
      </cc:Work>
    </rdf:RDF>
  </metadata>
  <defs
     id="defs364" />
  <title
     id="title2">SVG Picture created as attiny_lm75-F.Cu.svg date 2018/06/24 22:53:06 </title>
  <desc
     id="desc4">Picture generated by PCBNEW </desc>
  <g
     id="g6"
     transform="translate(0 0) scale(1 1)"
     style="fill:#000000; fill-opacity:1;stroke:#000000; stroke-opacity:1; stroke-linecap:round; stroke-linejoin:round; " />
  <g
     id="g8"
     style="fill:#000000; fill-opacity:0.0;  stroke:#000000; stroke-width:-0.000393701; stroke-opacity:1;  stroke-linecap:round; stroke-linejoin:round;" />
  <g
     id="g20"
     style="fill:#000000; fill-opacity:0.0;  stroke:#000000; stroke-width:0; stroke-opacity:1;  stroke-linecap:round; stroke-linejoin:round;" />
  <g
     id="g102"
     style="fill:#000000; fill-opacity:1.0;  stroke:#000000; stroke-width:255.906; stroke-opacity:1;  stroke-linecap:round; stroke-linejoin:round;" />
  <g
     transform="translate(9.0000295,341.99972)"
     id="g5014">
    <g
       style="fill:#000000;fill-opacity:0;stroke:#000000;stroke-width:59.05509949;stroke-linecap:round;stroke-linejoin:round;stroke-opacity:1"
       id="g18">
      <path
         d="M 6666,83 H 716"
         id="path10" />
      <path
         d="M 6666,83 V 13483"
         id="path12" />
      <path
         d="M 716,13483 V 83"
         id="path14" />
      <path
         d="M 6666,13483 H 716"
         id="path16" />
    </g>
    <g
       style="fill:#000000;fill-opacity:1;stroke:#000000;stroke-width:0;stroke-linecap:round;stroke-linejoin:round;stroke-opacity:1"
       id="g100">
      <polyline
         style="fill-rule:evenodd"
         points="1652,10207 1179,10207 1179,10561 1652,10561 1652,10207 "
         id="polyline22" />
      <polyline
         style="fill-rule:evenodd"
         points="1652,11506 1179,11506 1179,11860 1652,11860 1652,11506 "
         id="polyline24" />
      <polyline
         style="fill-rule:evenodd"
         points="2894,3762 2638,3762 2638,4431 2894,4431 2894,3762 "
         id="polyline26" />
      <polyline
         style="fill-rule:evenodd"
         points="3394,3762 3138,3762 3138,4431 3394,4431 3394,3762 "
         id="polyline28" />
      <polyline
         style="fill-rule:evenodd"
         points="3894,3762 3638,3762 3638,4431 3894,4431 3894,3762 "
         id="polyline30" />
      <polyline
         style="fill-rule:evenodd"
         points="4394,3762 4138,3762 4138,4431 4394,4431 4394,3762 "
         id="polyline32" />
      <polyline
         style="fill-rule:evenodd"
         points="4394,6636 4138,6636 4138,7305 4394,7305 4394,6636 "
         id="polyline34" />
      <polyline
         style="fill-rule:evenodd"
         points="3894,6636 3638,6636 3638,7305 3894,7305 3894,6636 "
         id="polyline36" />
      <polyline
         style="fill-rule:evenodd"
         points="3394,6636 3138,6636 3138,7305 3394,7305 3394,6636 "
         id="polyline38" />
      <polyline
         style="fill-rule:evenodd"
         points="2894,6636 2638,6636 2638,7305 2894,7305 2894,6636 "
         id="polyline40" />
      <polyline
         style="fill-rule:evenodd"
         points="957,2240 957,3027 2728,3027 2728,2240 957,2240 "
         id="polyline42" />
      <polyline
         style="fill-rule:evenodd"
         points="4303,2240 4303,3027 6075,3027 6075,2240 4303,2240 "
         id="polyline44" />
      <polyline
         style="fill-rule:evenodd"
         points="1628,818 1628,1448 2022,1448 2022,818 1628,818 "
         id="polyline46" />
      <polyline
         style="fill-rule:evenodd"
         points="2809,818 2809,1448 3203,1448 3203,818 2809,818 "
         id="polyline48" />
      <polyline
         style="fill-rule:evenodd"
         points="5403,1448 5403,818 5009,818 5009,1448 5403,1448 "
         id="polyline50" />
      <polyline
         style="fill-rule:evenodd"
         points="4222,1448 4222,818 3828,818 3828,1448 4222,1448 "
         id="polyline52" />
      <polyline
         style="fill-rule:evenodd"
         points="4851,6321 5481,6321 5481,5927 4851,5927 4851,6321 "
         id="polyline54" />
      <polyline
         style="fill-rule:evenodd"
         points="4851,5140 5481,5140 5481,4746 4851,4746 4851,5140 "
         id="polyline56" />
      <polyline
         style="fill-rule:evenodd"
         points="2200,4785 1531,4785 1531,5140 2200,5140 2200,4785 "
         id="polyline58" />
      <polyline
         style="fill-rule:evenodd"
         points="2200,5927 1531,5927 1531,6281 2200,6281 2200,5927 "
         id="polyline60" />
      <polyline
         style="fill-rule:evenodd"
         points="2151,11021 2781,11021 2781,10627 2151,10627 2151,11021 "
         id="polyline62" />
      <polyline
         style="fill-rule:evenodd"
         points="2151,9840 2781,9840 2781,9446 2151,9446 2151,9840 "
         id="polyline64" />
      <polyline
         style="fill-rule:evenodd"
         points="5114,8218 5114,7549 4759,7549 4759,8218 5114,8218 "
         id="polyline66" />
      <polyline
         style="fill-rule:evenodd"
         points="3972,8218 3972,7549 3618,7549 3618,8218 3972,8218 "
         id="polyline68" />
      <polyline
         style="fill-rule:evenodd"
         points="1918,7549 1918,8218 2272,8218 2272,7549 1918,7549 "
         id="polyline70" />
      <polyline
         style="fill-rule:evenodd"
         points="3059,7549 3059,8218 3414,8218 3414,7549 3059,7549 "
         id="polyline72" />
      <polyline
         style="fill-rule:evenodd"
         points="3384,8865 3148,8865 3148,9475 3384,9475 3384,8865 "
         id="polyline74" />
      <polyline
         style="fill-rule:evenodd"
         points="3884,8865 3648,8865 3648,9475 3884,9475 3884,8865 "
         id="polyline76" />
      <polyline
         style="fill-rule:evenodd"
         points="4384,8865 4148,8865 4148,9475 4384,9475 4384,8865 "
         id="polyline78" />
      <polyline
         style="fill-rule:evenodd"
         points="4884,8865 4648,8865 4648,9475 4884,9475 4884,8865 "
         id="polyline80" />
      <polyline
         style="fill-rule:evenodd"
         points="4884,10991 4648,10991 4648,11601 4884,11601 4884,10991 "
         id="polyline82" />
      <polyline
         style="fill-rule:evenodd"
         points="4384,10991 4148,10991 4148,11601 4384,11601 4384,10991 "
         id="polyline84" />
      <polyline
         style="fill-rule:evenodd"
         points="3884,10991 3648,10991 3648,11601 3884,11601 3884,10991 "
         id="polyline86" />
      <polyline
         style="fill-rule:evenodd"
         points="3384,10991 3148,10991 3148,11601 3384,11601 3384,10991 "
         id="polyline88" />
      <polyline
         style="fill-rule:evenodd"
         points="2909,12340 2122,12340 2122,13127 2909,13127 2909,12340 "
         id="polyline90" />
      <polyline
         style="fill-rule:evenodd"
         points="3909,12340 3122,12340 3122,13127 3909,13127 3909,12340 "
         id="polyline92" />
      <polyline
         style="fill-rule:evenodd"
         points="4909,12340 4122,12340 4122,13127 4909,13127 4909,12340 "
         id="polyline94" />
      <polyline
         style="fill-rule:evenodd"
         points="5231,10981 5900,10981 5900,10627 5231,10627 5231,10981 "
         id="polyline96" />
      <polyline
         style="fill-rule:evenodd"
         points="5231,9840 5900,9840 5900,9485 5231,9485 5231,9840 "
         id="polyline98" />
    </g>
    <g
       style="fill:#000000;fill-opacity:0;stroke:#000000;stroke-width:255.90600586;stroke-linecap:round;stroke-linejoin:round;stroke-opacity:1"
       id="g108">
      <path
         d="M 3266,4096 V 3583"
         id="path104" />
      <path
         d="M 3266,3583 2316,2633"
         id="path106" />
    </g>
    <g
       style="fill:#000000;fill-opacity:0;stroke:#000000;stroke-width:236.22000122;stroke-linecap:round;stroke-linejoin:round;stroke-opacity:1"
       id="g114">
      <path
         d="M 2316,2633 H 1842"
         id="path110" />
      <path
         d="M 2316,2633 H 1842"
         id="path112" />
    </g>
    <g
       style="fill:#000000;fill-opacity:0;stroke:#000000;stroke-width:255.90600586;stroke-linecap:round;stroke-linejoin:round;stroke-opacity:1"
       id="g118">
      <path
         d="M 1825,1133 V 2616"
         id="path116" />
    </g>
    <g
       style="fill:#000000;fill-opacity:0;stroke:#000000;stroke-width:236.22000122;stroke-linecap:round;stroke-linejoin:round;stroke-opacity:1"
       id="g124">
      <path
         d="m 1825,2616 17,17"
         id="path120" />
      <path
         d="m 1842,1116 -17,17"
         id="path122" />
    </g>
    <g
       style="fill:#000000;fill-opacity:0;stroke:#000000;stroke-width:255.90600586;stroke-linecap:round;stroke-linejoin:round;stroke-opacity:1"
       id="g130">
      <path
         d="M 3766,4096 V 3583"
         id="path126" />
      <path
         d="m 3766,3583 950,-950"
         id="path128" />
    </g>
    <g
       style="fill:#000000;fill-opacity:0;stroke:#000000;stroke-width:236.22000122;stroke-linecap:round;stroke-linejoin:round;stroke-opacity:1"
       id="g136">
      <path
         d="m 4716,2633 h 473"
         id="path132" />
      <path
         d="m 4716,2633 h 473"
         id="path134" />
    </g>
    <g
       style="fill:#000000;fill-opacity:0;stroke:#000000;stroke-width:255.90600586;stroke-linecap:round;stroke-linejoin:round;stroke-opacity:1"
       id="g140">
      <path
         d="M 5206,1133 V 2616"
         id="path138" />
    </g>
    <g
       style="fill:#000000;fill-opacity:0;stroke:#000000;stroke-width:236.22000122;stroke-linecap:round;stroke-linejoin:round;stroke-opacity:1"
       id="g146">
      <path
         d="m 5206,2616 -17,17"
         id="path142" />
      <path
         d="m 5189,1116 17,17"
         id="path144" />
    </g>
    <g
       style="fill:#000000;fill-opacity:0;stroke:#000000;stroke-width:255.90600586;stroke-linecap:round;stroke-linejoin:round;stroke-opacity:1"
       id="g172">
      <path
         d="m 2766,4096 v 637"
         id="path148" />
      <path
         d="M 2537,4962 H 1866"
         id="path150" />
      <path
         d="m 2766,4733 -229,229"
         id="path152" />
      <path
         d="M 4266,4096 V 3733"
         id="path154" />
      <path
         d="m 3516,633 v 500"
         id="path156" />
      <path
         d="M 3666,483 3516,633"
         id="path158" />
      <path
         d="M 6066,483 H 3666"
         id="path160" />
      <path
         d="M 6416,833 6066,483"
         id="path162" />
      <path
         d="M 6416,3183 V 833"
         id="path164" />
      <path
         d="m 6066,3533 350,-350"
         id="path166" />
      <path
         d="M 4466,3533 H 6066"
         id="path168" />
      <path
         d="m 4266,3733 200,-200"
         id="path170" />
    </g>
    <g
       style="fill:#000000;fill-opacity:0;stroke:#000000;stroke-width:236.22000122;stroke-linecap:round;stroke-linejoin:round;stroke-opacity:1"
       id="g178">
      <path
         d="m 4766,9170 v 1013"
         id="path174" />
      <path
         d="m 4766,10183 -50,50"
         id="path176" />
    </g>
    <g
       style="fill:#000000;fill-opacity:0;stroke:#000000;stroke-width:255.90600586;stroke-linecap:round;stroke-linejoin:round;stroke-opacity:1"
       id="g214">
      <path
         d="M 4516,12733 H 5566"
         id="path180" />
      <path
         d="m 6266,12033 v -500"
         id="path182" />
      <path
         d="m 5566,12733 700,-700"
         id="path184" />
      <path
         d="M 4066,10233 H 3666"
         id="path186" />
      <path
         d="m 2466,9643 v 340"
         id="path188" />
      <path
         d="m 2716,10233 h 950"
         id="path190" />
      <path
         d="m 2466,9983 250,250"
         id="path192" />
      <path
         d="M 6266,10233 H 4866"
         id="path194" />
      <path
         d="M 4866,10233 H 4716"
         id="path196" />
      <path
         d="M 4716,10233 H 4066"
         id="path198" />
      <path
         d="M 5625,4943 H 5166"
         id="path200" />
      <path
         d="M 5866,5183 5625,4943"
         id="path202" />
      <path
         d="M 5866,8383 V 5183"
         id="path204" />
      <path
         d="M 6266,8783 5866,8383"
         id="path206" />
      <path
         d="M 6266,11533 V 10233"
         id="path208" />
      <path
         d="M 6266,10233 V 8783"
         id="path210" />
      <path
         d="m 4266,10833 v -600"
         id="path212" />
    </g>
    <g
       style="fill:#000000;fill-opacity:0;stroke:#000000;stroke-width:236.22000122;stroke-linecap:round;stroke-linejoin:round;stroke-opacity:1"
       id="g234">
      <path
         d="m 4266,10233 h -50"
         id="path216" />
      <path
         d="M 4216,10233 H 4066"
         id="path218" />
      <path
         d="m 4266,10833 v 463"
         id="path220" />
      <path
         d="m 3766,11296 v -363"
         id="path222" />
      <path
         d="m 4766,10933 v 363"
         id="path224" />
      <path
         d="m 4666,10833 100,100"
         id="path226" />
      <path
         d="m 3866,10833 h 400"
         id="path228" />
      <path
         d="m 4266,10833 h 400"
         id="path230" />
      <path
         d="m 3766,10933 100,-100"
         id="path232" />
    </g>
    <g
       style="fill:#000000;fill-opacity:0;stroke:#000000;stroke-width:255.90600586;stroke-linecap:round;stroke-linejoin:round;stroke-opacity:1"
       id="g256">
      <path
         d="M 5166,4943 H 4525"
         id="path236" />
      <path
         d="M 4266,4683 V 4096"
         id="path238" />
      <path
         d="M 4525,4943 4266,4683"
         id="path240" />
      <path
         d="M 4025,1133 H 3516"
         id="path242" />
      <path
         d="M 3516,1133 H 3006"
         id="path244" />
      <path
         d="M 2516,12733 H 1766"
         id="path246" />
      <path
         d="m 1416,12383 v -700"
         id="path248" />
      <path
         d="m 1766,12733 -350,-350"
         id="path250" />
      <path
         d="M 3266,6970 V 9170"
         id="path252" />
      <path
         d="m 3266,6970 v 884"
         id="path254" />
    </g>
    <g
       style="fill:#000000;fill-opacity:0;stroke:#000000;stroke-width:236.22000122;stroke-linecap:round;stroke-linejoin:round;stroke-opacity:1"
       id="g260">
      <path
         d="m 3266,7854 -29,29"
         id="path258" />
    </g>
    <g
       style="fill:#000000;fill-opacity:0;stroke:#000000;stroke-width:255.90600586;stroke-linecap:round;stroke-linejoin:round;stroke-opacity:1"
       id="g266">
      <path
         d="M 3766,6970 V 9170"
         id="path262" />
      <path
         d="m 3766,6970 v 884"
         id="path264" />
    </g>
    <g
       style="fill:#000000;fill-opacity:0;stroke:#000000;stroke-width:236.22000122;stroke-linecap:round;stroke-linejoin:round;stroke-opacity:1"
       id="g272">
      <path
         d="m 3766,7854 29,29"
         id="path268" />
      <path
         d="m 3766,7912 29,-29"
         id="path270" />
    </g>
    <g
       style="fill:#000000;fill-opacity:0;stroke:#000000;stroke-width:255.90600586;stroke-linecap:round;stroke-linejoin:round;stroke-opacity:1"
       id="g340">
      <path
         d="m 5566,10804 v 729"
         id="path274" />
      <path
         d="m 3516,12083 v 650"
         id="path276" />
      <path
         d="m 3716,11883 -200,200"
         id="path278" />
      <path
         d="M 5216,11883 H 3716"
         id="path280" />
      <path
         d="m 5566,11533 -350,350"
         id="path282" />
      <path
         d="m 4266,6970 v 463"
         id="path284" />
      <path
         d="m 5566,8833 v 829"
         id="path286" />
      <path
         d="m 5266,8533 300,300"
         id="path288" />
      <path
         d="m 4466,8533 h 800"
         id="path290" />
      <path
         d="m 4366,8433 100,100"
         id="path292" />
      <path
         d="m 4366,7533 v 900"
         id="path294" />
      <path
         d="m 4266,7433 100,100"
         id="path296" />
      <path
         d="M 1016,6283 V 7683"
         id="path298" />
      <path
         d="m 1016,7683 400,400"
         id="path300" />
      <path
         d="M 2766,6970 V 6083"
         id="path302" />
      <path
         d="m 2366,6083 h 400"
         id="path304" />
      <path
         d="M 2766,6083 H 5125"
         id="path306" />
      <path
         d="m 5125,6083 41,41"
         id="path308" />
      <path
         d="M 1016,6283 V 5833"
         id="path310" />
      <path
         d="m 5166,5733 v 391"
         id="path312" />
      <path
         d="m 4966,5533 200,200"
         id="path314" />
      <path
         d="M 1316,5533 H 4966"
         id="path316" />
      <path
         d="m 1016,5833 300,-300"
         id="path318" />
      <path
         d="M 1416,10384 V 8083"
         id="path320" />
      <path
         d="M 2466,10824 H 1506"
         id="path322" />
      <path
         d="m 1416,10733 v -349"
         id="path324" />
      <path
         d="m 1506,10824 -90,-91"
         id="path326" />
      <path
         d="M 2095,7883 V 7112"
         id="path328" />
      <path
         d="M 1866,6883 V 6104"
         id="path330" />
      <path
         d="M 2095,7112 1866,6883"
         id="path332" />
      <path
         d="m 5166,6124 v 759"
         id="path334" />
      <path
         d="m 5166,6883 -229,229"
         id="path336" />
      <path
         d="m 4937,7112 v 771"
         id="path338" />
    </g>
    <g
       style="fill:#000000;fill-opacity:0;stroke:#000000;stroke-width:236.22000122;stroke-linecap:round;stroke-linejoin:round;stroke-opacity:1"
       id="g348">
      <path
         d="m 3266,11296 v -363"
         id="path342" />
      <path
         d="m 3266,10933 -110,-109"
         id="path344" />
      <path
         d="M 3156,10824 H 2466"
         id="path346" />
    </g>
    <g
       style="fill:#000000;fill-opacity:0;stroke:#000000;stroke-width:255.90600586;stroke-linecap:round;stroke-linejoin:round;stroke-opacity:1"
       id="g354">
      <path
         d="M 2366,6083 H 1887"
         id="path350" />
      <path
         d="m 1887,6083 -21,21"
         id="path352" />
    </g>
  </g>
  <g
     id="g356"
     style="fill:#FFFFFF; fill-opacity:0.0;  stroke:#FFFFFF; stroke-width:255.906; stroke-opacity:1;  stroke-linecap:round; stroke-linejoin:round;" />
  <g
     id="g358"
     style="fill:#000000; fill-opacity:0.0;  stroke:#000000; stroke-width:255.906; stroke-opacity:1;  stroke-linecap:round; stroke-linejoin:round;" />
</svg>
